# xmcd
#
# Track frame offsets:
# 180
# 12541
# 28783
# 43019
# 58306
# 69132
# 85804
# 101149
# 113977
# 131126
#
# Disc length: 1996 seconds
#
#
# Revision: 0
# Processed by: cddbd v1.5.2PL0 Copyright (c) Steve Scherf et al.
# Submitted via: FreeRIP 2.95 
#
DISCID=8c07ca0a
DTITLE=Bev McCann - God's Love
DYEAR=1900
DGENRE=Country
TTITLE0=God's Love
TTITLE1=On The Wings Of God's Love
TTITLE2=A God That Cannot Fail
TTITLE3=Peace Be Still
TTITLE4=Fall On Me
TTITLE5=New Song Unto The Lord
TTITLE6=My God Is Ever Near
TTITLE7=Cleft Of His Hand
TTITLE8=Wrap Me In Your Arms
TTITLE9=Sweet Jesus
EXTD=
EXTT0=
EXTT1=
EXTT2=
EXTT3=
EXTT4=
EXTT5=
EXTT6=
EXTT7=
EXTT8=
EXTT9=
PLAYORDER=
